<svg width="546" height="355" viewBox="0 0 546 355" fill="none" xmlns="http://www.w3.org/2000/svg">
<path d="M0 205H546V55H447.541L310.295 99L211.836 111L155.148 159L74.5902 131L0 205Z" fill="#31A636"/>
<path d="M0 205H546V355H447.541L310.295 311L211.836 299L155.148 251L74.5902 279L0 205Z" fill="#31A675"/>
<path d="M206 48L224.187 153H187.813L206 48Z" fill="#134515"/>
<path d="M70 72L88.1865 177H51.8135L70 72Z" fill="#134515"/>
<rect x="253" y="29" width="120" height="66" fill="#CB5D2D"/>
<path d="M314 0L375.488 29.25H252.512L314 0Z" fill="#3B1F0B"/>
<rect x="261" y="88" width="6" height="30" fill="#3B1F0B"/>
<rect x="244" y="92" width="11" height="3" fill="#3B1F0B"/>
<line x1="244.484" y1="92.1272" x2="234.484" y2="130.127" stroke="#3B1F0B"/>
<rect x="267" y="49" width="25" height="25" fill="#95BAC6"/>
<rect x="334" y="49" width="25" height="25" fill="#95BAC6"/>
</svg>
