<svg width="15" height="14" viewBox="0 0 15 14" fill="none" xmlns="http://www.w3.org/2000/svg">
<g clip-path="url(#clip0_366_29)">
<path d="M9.24817 11.4525C12.3508 12.713 12.6982 10.5953 12.2351 8.52793C11.7025 6.10762 11.1931 6.08241 10.8921 3.10745C10.5911 0.132495 12.0498 -0.0439851 12.7908 0.00643787C13.3233 0.0568609 13.6012 0.561091 13.6012 0.561091C14.18 1.34265 13.6243 1.29222 14.2495 1.79645C14.8515 2.30068 14.6431 3.03182 13.9022 2.93097C13.1612 2.83013 13.0918 2.50238 12.5824 2.02336C12.073 1.54434 11.5404 3.23351 14.0643 7.77158C15.824 10.9734 14.8747 13.4694 13.0918 14.9316C13.4854 15.8897 13.9022 16.8729 13.3002 16.646C12.8834 16.4948 12.5129 16.0662 12.2582 15.7132C12.6287 16.8981 12.5824 18.5621 11.772 17.5536C11.3321 17.0242 11.1931 16.4695 11.17 16.041C10.568 16.2679 9.96595 16.3939 9.36394 16.4191C8.29884 16.4695 7.34952 16.3939 6.53912 16.2426C6.51596 16.2931 6.51596 16.3435 6.49281 16.3939C6.33073 17.0494 6.40019 17.4276 6.05288 17.0998C5.8908 16.9486 5.79818 16.5704 5.75187 16.2174C5.40456 16.52 4.84886 16.7469 4.40892 17.125C3.4596 17.9066 3.59852 17.2259 3.59852 17.2259C3.62168 16.4948 3.83007 15.9653 4.10792 15.5871C3.48275 15.3602 2.9502 15.1333 2.44081 14.9821C1.19048 14.6039 0.565312 16.8981 1.19048 18.0327C1.46833 18.5369 1.42202 18.6125 2.57973 19.5454C4.75624 21.2849 3.50591 22.1926 2.34819 21.9657C1.25994 21.7388 1.63041 21.3354 1.63041 21.3354C1.63041 21.3354 3.25121 21.8648 3.11228 21.0076C3.01967 20.4278 1.0284 19.2428 0.727392 18.7638C-0.198779 17.3015 0.0790722 15.8393 0.0790722 15.8393C1.09786 11.0491 6.00657 10.1415 9.24817 11.4525Z" fill="#2D3341"/>
</g>
<defs>
<clipPath id="clip0_366_29">
<rect width="15" height="14" fill="white" transform="matrix(-1 0 0 1 15 0)"/>
</clipPath>
</defs>
</svg>
