<svg width="22" height="8" viewBox="0 0 22 8" fill="none" xmlns="http://www.w3.org/2000/svg">
<path fill-rule="evenodd" clip-rule="evenodd" d="M15.2748 2.28673e-05C13.5605 -0.00549588 12.6668 0.349083 12.3887 0.80162C11.9829 1.70118 12.3112 2.84079 12.0103 3.72103C8.39006 3.7638 6.47964 3.7914 3.47953 3.83693C3.46129 2.71524 3.20597 2.47656 2.09347 2.45862C0.99464 2.44069 0.807701 2.71938 0.780344 2.99532C0.748428 3.27125 0.757563 3.57617 0.739325 3.87694C0.739325 3.87694 0.192167 3.87832 0.0872996 3.93075C-0.0130082 3.97904 -0.0312215 4.08389 0.0554079 4.13908C0.128359 4.19013 0.757553 4.20807 0.757553 4.20807C0.757553 4.20807 0.762117 4.77374 0.734761 5.05243C0.707404 5.35734 0.771232 5.6457 2.09803 5.65397C3.42483 5.66087 3.46585 5.82506 3.47953 5.05243C7.4736 5.12832 7.69702 4.98897 12.0103 5.05243C12.2929 5.92991 11.9829 6.26518 12.3887 7.02676C12.717 7.63521 13.5605 8.016 15.2703 7.99944C16.9846 7.9815 17.591 7.68763 17.5956 7.02262C17.6001 5.84713 17.9991 4.88872 17.9991 4.88872C19.6906 4.87768 21.9909 4.63853 22 4.1308C22.0046 3.62308 19.6519 3.71552 17.9421 3.69896C17.9421 3.06982 17.5682 1.69427 17.5819 0.787818C17.591 0.364255 17.012 0.0069213 15.2748 2.28673e-05Z" fill="#592E2E"/>
</svg>
