<svg width="12" height="22" viewBox="0 0 12 22" fill="none" xmlns="http://www.w3.org/2000/svg">
<g clip-path="url(#clip0_371_33)">
<path d="M10.919 1.15624C11.3798 2.38607 11.5175 4.03858 11.3076 5.88985L11.3073 5.89013L7.61148 4.56513L7.61144 4.56473C8.62559 3.0018 9.78189 1.81321 10.919 1.15624Z" fill="#D9D9D9"/>
<path d="M2.8369 17.4927L4.89969 10.9901L4.89998 10.9899L5.69795 8.47411C6.22089 7.01545 6.87861 5.69267 7.61049 4.5647L7.61053 4.5651L11.3064 5.8901L11.3067 5.88982C11.1552 7.22586 10.8226 8.66522 10.2997 10.1239L9.31746 12.5736L6.77861 18.9059L5.79343 18.5527L4.80792 18.1994L3.82241 17.8461L2.8369 17.4927ZM8.71435 11.1337C9.20684 9.76051 9.06101 8.45153 8.38872 8.2109C7.71667 7.96958 6.77238 8.88773 6.28023 10.261C5.78774 11.6342 5.93357 12.9432 6.60586 13.1838C7.27791 13.4252 8.2222 12.507 8.71435 11.1337Z" fill="#D9D9D9"/>
<path d="M9.31787 12.5732C9.57133 14.3486 9.29982 16.6602 8.45036 19.0296C8.18945 19.7568 7.89033 20.4454 7.56214 21.0855L6.77902 18.9055L9.31787 12.5732Z" fill="#D9D9D9"/>
<path d="M8.38813 8.21072C9.06042 8.45136 9.20626 9.76034 8.71377 11.1335C8.22161 12.5068 7.27732 13.425 6.60528 13.1837C5.93299 12.943 5.78715 11.634 6.27964 10.2609C6.7718 8.88756 7.71609 7.9694 8.38813 8.21072Z" fill="#D9D9D9"/>
<path d="M6.7783 18.9057L5.69121 20.6149C5.39238 21.0851 5.02446 21.3226 4.74888 21.2235L4.52066 21.1416L5.79312 18.5525L6.7783 18.9057Z" fill="#D9D9D9"/>
<path d="M5.79386 18.5527L4.52141 21.1419L4.52112 21.1421L3.84079 20.8982L4.80835 18.1994L5.79386 18.5527Z" fill="#D9D9D9"/>
<path d="M4.90036 10.9899L2.83756 17.4925L0.848061 18.6785C1.00134 17.9757 1.20784 17.2539 1.46841 16.5266C2.31787 14.1572 3.57631 12.2002 4.90036 10.9899Z" fill="#D9D9D9"/>
<path d="M4.8088 18.1994L3.84124 20.8982L3.16087 20.6539L3.82329 17.8461L4.8088 18.1994Z" fill="#D9D9D9"/>
<path d="M3.82271 17.8457L3.16028 20.6536L2.93178 20.5721C2.6562 20.4729 2.52308 20.0561 2.59073 19.5034L2.8372 17.4924L3.82271 17.8457Z" fill="#D9D9D9"/>
<path d="M6.82336 19.3057C6.74947 19.3775 6.6713 19.4102 6.60623 19.3869L2.66452 17.9738C2.53441 17.9272 2.50619 17.6738 2.60148 17.408C2.69678 17.1422 2.87952 16.9646 3.00964 17.0111L6.95136 18.4243C7.08147 18.471 7.10969 18.7243 7.0144 18.9901C6.96674 19.123 6.89721 19.2339 6.82336 19.3057Z" fill="white"/>
<path d="M3.20442 21.0541C3.15218 21.1049 3.09713 21.1367 3.04497 21.1417C2.89675 21.1561 2.82815 20.9492 2.89173 20.6798L3.55415 17.8719C3.61775 17.6024 3.78946 17.3722 3.93766 17.358C4.08588 17.3436 4.15447 17.5505 4.0909 17.8199L3.42848 20.6278C3.38726 20.8024 3.30064 20.9606 3.20442 21.0541Z" fill="white"/>
<path d="M3.88455 21.2981C3.8107 21.3699 3.73249 21.4026 3.66743 21.3793C3.53733 21.3327 3.50907 21.0794 3.60436 20.8136L4.57193 18.1147C4.66722 17.849 4.84996 17.6713 4.98006 17.7179C5.11016 17.7645 5.13841 18.0178 5.04312 18.2836L4.07556 20.9825C4.02793 21.1154 3.9584 21.2263 3.88455 21.2981Z" fill="white"/>
<path d="M4.56668 21.5413C4.47046 21.6349 4.36898 21.6597 4.3007 21.5915C4.19538 21.4862 4.20901 21.1994 4.33112 20.951L5.60358 18.3618C5.72567 18.1132 5.91009 17.9971 6.01545 18.1024C6.12077 18.2077 6.10714 18.4945 5.98503 18.743L4.71257 21.3321C4.66957 21.4196 4.61892 21.4906 4.56668 21.5413Z" fill="white"/>
<path d="M4.9451 11.3897C4.87852 11.4545 4.80808 11.4878 4.7464 11.4759C4.60946 11.4494 4.5675 11.2103 4.65269 10.9417L5.45066 8.42595C5.53583 8.15744 5.71588 7.96109 5.85288 7.9875C5.98981 8.01393 6.03177 8.25305 5.94655 8.52165L5.14858 11.0374C5.10179 11.185 5.02631 11.3108 4.9451 11.3897Z" fill="white"/>
<path d="M5.44638 21.3779C5.14485 21.6711 4.83011 21.796 4.57629 21.7046L4.357 21.626C4.35394 21.6252 4.35092 21.6242 4.34795 21.6231L2.75893 21.0534C2.39265 20.9216 2.21421 20.3624 2.30404 19.6286L2.55049 17.6176C2.55742 17.5612 2.57037 17.5026 2.58877 17.4446L4.65156 10.942C4.73682 10.6734 4.91685 10.4772 5.05378 10.5036C5.19072 10.5301 5.23266 10.7692 5.14746 11.0378L3.11247 17.4526L2.87647 19.3784C2.83155 19.7452 2.92087 20.0249 3.10401 20.0909L4.6843 20.6574C4.68733 20.6583 4.69038 20.6592 4.69335 20.6603L4.92157 20.7421C5.10474 20.8081 5.35118 20.6489 5.54964 20.3367L6.59079 18.6997L10.0776 10.0031C10.1825 9.74145 10.3668 9.58355 10.4893 9.65009C10.6119 9.71665 10.6262 9.98269 10.5214 10.2442L7.00026 19.0262C6.97763 19.0827 6.95045 19.1362 6.91999 19.184L5.83287 20.8933C5.71097 21.0851 5.57994 21.248 5.44638 21.3779Z" fill="white"/>
<path d="M10.3441 10.5239C10.2702 10.5957 10.192 10.6284 10.127 10.6051C9.99687 10.5585 9.96865 10.3051 10.0639 10.0393C10.5492 8.68585 10.8706 7.33438 11.0194 6.02233C11.2087 4.35234 11.104 2.86959 10.7168 1.71709C9.68568 2.36103 8.66263 3.43957 7.74779 4.84941C7.02904 5.95712 6.41858 7.20505 5.93335 8.55848C5.83806 8.82424 5.65535 9.00194 5.52519 8.95535C5.39509 8.90871 5.36687 8.65539 5.46215 8.38955C5.99963 6.89043 6.67612 5.50767 7.47284 4.27981C8.54181 2.63248 9.744 1.39356 10.9495 0.697164C11.0533 0.637206 11.1432 0.669432 11.1852 0.781682C11.6736 2.08542 11.8149 3.80591 11.5936 5.75719C11.4287 7.21156 11.0726 8.7091 10.5351 10.2083C10.4875 10.3411 10.418 10.452 10.3441 10.5239Z" fill="white"/>
<path d="M11.3509 6.28986C11.277 6.3617 11.1989 6.39439 11.1338 6.3711L7.43795 5.04606C7.30785 4.99942 7.27963 4.7461 7.37492 4.48026C7.4703 4.21438 7.65299 4.03683 7.78308 4.0834L11.4789 5.40844C11.609 5.45508 11.6372 5.7084 11.542 5.97424C11.4943 6.10716 11.4248 6.21805 11.3509 6.28986Z" fill="white"/>
<path d="M2.88161 17.8921C2.8576 17.9155 2.83295 17.9348 2.80874 17.9493L0.819241 19.1353C0.728149 19.1896 0.646403 19.1736 0.598495 19.0921C0.550554 19.0106 0.541942 18.873 0.575197 18.7205C0.739863 17.9654 0.960797 17.199 1.23191 16.4422C2.09286 14.0408 3.4169 11.9036 4.86461 10.5806C5.02034 10.437 5.16414 10.4926 5.18826 10.709C5.21287 10.9299 5.10377 11.2346 4.94437 11.3896L4.94409 11.3898C4.94042 11.3934 4.93675 11.3969 4.93306 11.4003C3.6459 12.5765 2.46849 14.4761 1.70318 16.6109C1.54009 17.066 1.39746 17.525 1.27696 17.9819L2.85854 17.0391C2.9911 16.9556 3.10433 17.0217 3.12548 17.2116C3.1501 17.4325 3.041 17.7371 2.88161 17.8921Z" fill="white"/>
<path d="M7.60601 21.4859C7.56806 21.5228 7.52887 21.5494 7.49067 21.5633C7.40185 21.5958 7.3286 21.5562 7.29276 21.4565L6.50961 19.2765C6.44641 19.1006 6.51551 18.7921 6.6639 18.5874C6.81218 18.3826 6.98378 18.3593 7.04697 18.5352L7.672 20.2751C7.86926 19.8457 8.05079 19.4005 8.21413 18.9453C8.97939 16.8107 9.27698 14.5959 9.03041 12.8692C8.99975 12.6543 9.10324 12.3478 9.26154 12.1845C9.41949 12.0206 9.57312 12.063 9.6038 12.2778C9.88112 14.2206 9.54634 16.7124 8.68519 19.1144C8.41369 19.8712 8.09728 20.6035 7.74468 21.2913C7.70417 21.3703 7.65617 21.4371 7.60601 21.4859Z" fill="white"/>
<path d="M7.66859 12.8941C7.2373 13.4135 6.83071 13.6388 6.52367 13.5285C6.21662 13.4186 6.04577 12.9863 6.04271 12.3112C6.03965 11.6361 6.20474 10.7993 6.50755 9.95482C6.81015 9.11056 7.21436 8.35945 7.64565 7.84007C8.07694 7.3207 8.48353 7.09542 8.79057 7.20566C9.0976 7.31557 9.26845 7.74786 9.27151 8.42296C9.27457 9.09797 9.1095 9.93474 8.80677 10.7791C8.80674 10.7792 8.80674 10.7791 8.80666 10.7794C8.50401 11.6238 8.09983 12.3748 7.66859 12.8941ZM7.64939 8.65971C7.35801 9.01061 7.08492 9.51804 6.88047 10.0885C6.67579 10.6592 6.56427 11.2246 6.56634 11.6807C6.5684 12.1368 6.68381 12.4289 6.89131 12.5031C7.09879 12.5777 7.37349 12.4254 7.66487 12.0745C7.95626 11.7236 8.22935 11.2162 8.4338 10.6457C8.43385 10.6456 8.43387 10.6455 8.4339 10.6454C8.63848 10.075 8.75 9.50965 8.74793 9.05355C8.74586 8.59745 8.63045 8.30536 8.42295 8.23117C8.21548 8.15659 7.94078 8.30882 7.64939 8.65971Z" fill="white"/>
</g>
<defs>
<clipPath id="clip0_371_33">
<rect width="12" height="22" fill="white"/>
</clipPath>
</defs>
</svg>
